<?xml version="1.0" encoding="UTF-8"?>
<svg id="Layer_2" data-name="Layer 2" xmlns="http://www.w3.org/2000/svg" viewBox="0 0 1024 500">
  <defs>
    <style>
      .cls-1 {
        fill: #005b9b;
      }

      .cls-1, .cls-2, .cls-3 {
        stroke-width: 0px;
      }

      .cls-2 {
        fill: #00d3ff;
      }

      .cls-3 {
        fill: #fff;
      }
    </style>
  </defs>
  <path class="cls-1" d="M117.0032,247.0283l60.1317,215.0164c65.5982-39.1767,124.4671-114.6609,160.3512-110.6475,69.2425,0,120.2634,110.6475,202.9391,110.6475,95.8972-10.022,135.0857-112.3616,187.9169-110.6475,86.6754-9.4745,103.8639,98.8034,192.2393,110.6475,38.4392,3.7505,71.172-3.3118,91.1086-34.6213l-48.2876-180.3951c-77.5396,35.9746-140.9129-107.8176-220.4829-107.0471-120.2501-.7704-69.2426,96.1141-188.5949,94.2919-126.7442-1.935-138.4851-107.5082-225.0383-93.8419-84.7031,13.3742-96.5751,134.8408-212.2831,106.5971Z"/>
  <path class="cls-3" d="M12.3101,144.858l60.1317,215.0164c65.5982-39.1767,124.4671-114.6609,160.3512-110.6475,69.2425,0,120.2634,110.6475,202.9391,110.6475,95.8972-10.022,135.0857-112.3616,187.9169-110.6475,86.6754-9.4745,103.8639,98.8034,192.2393,110.6475,38.4392,3.7505,71.172-3.3118,91.1086-34.6213l-48.2876-180.3951c-77.5396,35.9746-140.9129-107.8176-220.4829-107.0471-120.2501-.7704-69.2426,96.1141-188.5949,94.2919-126.7442-1.935-138.4851-107.5082-225.0383-93.8419-84.7031,13.3742-96.5751,134.8408-212.2831,106.5971Z"/>
  <path class="cls-2" d="M554.7474,234.2731c-126.7441-1.9351-138.4851-107.5082-225.0384-93.8419-84.7031,13.3742-96.5751,134.8407-212.283,106.5971l18.3736,65.6996c39.4591-33.6207,73.5306-66.1725,97.4162-63.501,69.2425,0,120.2634,110.6475,202.939,110.6475,95.8973-10.0219,135.0858-112.3616,187.917-110.6475,86.6753-9.4745,103.8638,98.8034,192.2392,110.6475,38.4393,3.7506,71.1721-3.3117,91.1086-34.6213l-25.6755-95.9193c-44.7618-33.2012-88.3816-89.8369-138.4019-89.3526-120.2501-.7704-69.2425,96.1141-188.5948,94.292Z"/>
</svg>