<?xml version="1.0" encoding="UTF-8"?>
<svg xmlns="http://www.w3.org/2000/svg" viewBox="0 0 1024 1024">
  <defs>
    <style>
      .cls-1 {
        fill: #005b9b;
      }

      .cls-1, .cls-2, .cls-3, .cls-4 {
        stroke-width: 0px;
      }

      .cls-2 {
        fill: #00d3ff;
      }

      .cls-3 {
        fill: #010035;
      }

      .cls-4 {
        fill: #fff;
      }
    </style>
  </defs>
  <g id="Layer_3" data-name="Layer 3">
    <rect class="cls-3" width="1024" height="1024" rx="120.89" ry="120.89"/>
  </g>
  <g id="Layer_2" data-name="Layer 2">
    <g>
      <path class="cls-1" d="M209.839,509.7267l45.999,164.4812c50.1807-29.969,95.2137-87.7122,122.664-84.6421,52.9685,0,91.998,84.6421,155.2425,84.6421,73.3586-7.6665,103.3366-85.9533,143.7509-84.6421,66.3041-7.2477,79.4528,75.5817,147.0574,84.6421,29.4049,2.869,54.4445-2.5334,69.6954-26.4843l-36.9386-137.997c-59.3155,27.5195-107.7943-82.4773-168.6629-81.8879-91.9878-.5894-52.9685,73.5245-144.2696,72.1306-96.9556-1.4802-105.9371-82.2406-172.1477-71.7863-64.7954,10.2309-73.8772,103.1492-162.3904,81.5437Z"/>
      <path class="cls-4" d="M129.7518,431.5694l45.999,164.4812c50.1807-29.969,95.2137-87.7122,122.664-84.6421,52.9685,0,91.998,84.6421,155.2425,84.6421,73.3586-7.6665,103.3366-85.9533,143.7509-84.6421,66.3041-7.2477,79.4528,75.5817,147.0574,84.6421,29.4049,2.869,54.4445-2.5334,69.6954-26.4843l-36.9386-137.997c-59.3155,27.5195-107.7943-82.4773-168.6629-81.8879-91.9878-.5894-52.9685,73.5245-144.2696,72.1306-96.9556-1.4802-105.9371-82.2406-172.1477-71.7863-64.7954,10.2309-73.8772,103.1492-162.3904,81.5437Z"/>
      <path class="cls-2" d="M544.7005,499.9694c-96.9556-1.4803-105.9371-82.2407-172.1478-71.7863-64.7954,10.2308-73.8771,103.1492-162.3903,81.5436l14.0552,50.2582c30.1851-25.7189,56.2488-50.62,74.5206-48.5764,52.9685,0,91.998,84.6421,155.2424,84.6421,73.3586-7.6664,103.3367-85.9533,143.751-84.6421,66.3041-7.2477,79.4528,75.5817,147.0574,84.6421,29.4049,2.8691,54.4446-2.5334,69.6954-26.4843l-19.641-73.3755c-34.2415-25.3979-67.6094-68.7226-105.8734-68.3521-91.9878-.5894-52.9685,73.5245-144.2695,72.1306Z"/>
    </g>
  </g>
</svg>